<?xml version="1.0" encoding="UTF-8" standalone="no"?>
<!DOCTYPE svg PUBLIC "-//W3C//DTD SVG 1.1//EN"
 "http://www.w3.org/Graphics/SVG/1.1/DTD/svg11.dtd">
<!-- Generated by graphviz version 2.36.0 (20140111.2315)
 -->
<!-- Title: G Pages: 1 -->
<svg width="564pt" height="816pt"
 viewBox="0.00 0.00 564.00 816.00" xmlns="http://www.w3.org/2000/svg" xmlns:xlink="http://www.w3.org/1999/xlink">
<g id="graph0" class="graph" transform="scale(1 1) rotate(0) translate(4 812)">
<title>G</title>
<polygon fill="white" stroke="none" points="-4,4 -4,-812 560,-812 560,4 -4,4"/>
<g id="clust1" class="cluster"><title>cluster_Global</title>
<path fill="none" stroke="gray" d="M178,-8C178,-8 536,-8 536,-8 542,-8 548,-14 548,-20 548,-20 548,-788 548,-788 548,-794 542,-800 536,-800 536,-800 178,-800 178,-800 172,-800 166,-794 166,-788 166,-788 166,-20 166,-20 166,-14 172,-8 178,-8"/>
<text text-anchor="middle" x="357" y="-787.2" font-family="Times,serif" font-size="11.00" fill="gray">Global</text>
</g>
<g id="clust2" class="cluster"><title>cluster_\ItvisionSy</title>
<path fill="none" stroke="gray" d="M186,-16C186,-16 528,-16 528,-16 534,-16 540,-22 540,-28 540,-28 540,-760 540,-760 540,-766 534,-772 528,-772 528,-772 186,-772 186,-772 180,-772 174,-766 174,-760 174,-760 174,-28 174,-28 174,-22 180,-16 186,-16"/>
<text text-anchor="middle" x="357" y="-759.2" font-family="Times,serif" font-size="11.00" fill="gray">ItvisionSy</text>
</g>
<g id="clust3" class="cluster"><title>cluster_\ItvisionSy\Validator</title>
<path fill="none" stroke="gray" d="M194,-24C194,-24 520,-24 520,-24 526,-24 532,-30 532,-36 532,-36 532,-732 532,-732 532,-738 526,-744 520,-744 520,-744 194,-744 194,-744 188,-744 182,-738 182,-732 182,-732 182,-36 182,-36 182,-30 188,-24 194,-24"/>
<text text-anchor="middle" x="357" y="-731.2" font-family="Times,serif" font-size="11.00" fill="gray">Validator</text>
</g>
<!-- \\ItvisionSy\\Validator\\StringValidatorRule -->
<g id="node1" class="node"><title>\\ItvisionSy\\Validator\\StringValidatorRule</title>
<polygon fill="none" stroke="black" points="517.5,-716 372.5,-716 372.5,-680 517.5,-680 517.5,-716"/>
<text text-anchor="middle" x="445" y="-695.2" font-family="Courier,monospace" font-size="11.00">StringValidatorRule</text>
</g>
<!-- \\ItvisionSy\\Validator\\ValidatorRule -->
<g id="node12" class="node"><title>\\ItvisionSy\\Validator\\ValidatorRule</title>
<polygon fill="none" stroke="black" points="294,-392 190,-392 190,-356 294,-356 294,-392"/>
<text text-anchor="start" x="208" y="-377.2" font-family="Courier,monospace" font-size="11.00">«abstract»</text>
<text text-anchor="start" x="198" y="-365.2" font-family="Courier,monospace" font-size="11.00">ValidatorRule</text>
</g>
<!-- \\ItvisionSy\\Validator\\StringValidatorRule&#45;&gt;\\ItvisionSy\\Validator\\ValidatorRule -->
<g id="edge1" class="edge"><title>\\ItvisionSy\\Validator\\StringValidatorRule&#45;&gt;\\ItvisionSy\\Validator\\ValidatorRule</title>
<path fill="none" stroke="black" d="M377.762,-679.841C373.526,-677.271 369.546,-674.341 366,-671 286.083,-595.694 256.354,-460.706 246.873,-402.259"/>
<polygon fill="none" stroke="black" points="250.316,-401.617 245.331,-392.268 243.398,-402.685 250.316,-401.617"/>
</g>
<!-- \\ItvisionSy\\Validator\\MaxValidatorRule -->
<g id="node2" class="node"><title>\\ItvisionSy\\Validator\\MaxValidatorRule</title>
<polygon fill="none" stroke="black" points="507.5,-662 382.5,-662 382.5,-626 507.5,-626 507.5,-662"/>
<text text-anchor="middle" x="445" y="-641.2" font-family="Courier,monospace" font-size="11.00">MaxValidatorRule</text>
</g>
<!-- \\ItvisionSy\\Validator\\MaxValidatorRule&#45;&gt;\\ItvisionSy\\Validator\\ValidatorRule -->
<g id="edge2" class="edge"><title>\\ItvisionSy\\Validator\\MaxValidatorRule&#45;&gt;\\ItvisionSy\\Validator\\ValidatorRule</title>
<path fill="none" stroke="black" d="M382.283,-627.853C376.418,-624.825 370.858,-621.241 366,-617 298.162,-557.773 263.184,-452.177 249.72,-401.986"/>
<polygon fill="none" stroke="black" points="253.068,-400.954 247.169,-392.153 246.292,-402.711 253.068,-400.954"/>
</g>
<!-- \\ItvisionSy\\Validator\\ValidatorItem -->
<g id="node3" class="node"><title>\\ItvisionSy\\Validator\\ValidatorItem</title>
<polygon fill="none" stroke="black" points="497,-608 393,-608 393,-572 497,-572 497,-608"/>
<text text-anchor="middle" x="445" y="-587.2" font-family="Courier,monospace" font-size="11.00">ValidatorItem</text>
</g>
<!-- \\ItvisionSy\\Validator\\NotInValidatorRule -->
<g id="node4" class="node"><title>\\ItvisionSy\\Validator\\NotInValidatorRule</title>
<polygon fill="none" stroke="black" points="514,-554 376,-554 376,-518 514,-518 514,-554"/>
<text text-anchor="middle" x="445" y="-533.2" font-family="Courier,monospace" font-size="11.00">NotInValidatorRule</text>
</g>
<!-- \\ItvisionSy\\Validator\\NotInValidatorRule&#45;&gt;\\ItvisionSy\\Validator\\ValidatorRule -->
<g id="edge3" class="edge"><title>\\ItvisionSy\\Validator\\NotInValidatorRule&#45;&gt;\\ItvisionSy\\Validator\\ValidatorRule</title>
<path fill="none" stroke="black" d="M382.146,-517.883C376.502,-515.263 371.026,-512.311 366,-509 321.659,-479.787 282.695,-431.022 261.048,-400.788"/>
<polygon fill="none" stroke="black" points="263.772,-398.577 255.155,-392.413 258.047,-402.605 263.772,-398.577"/>
</g>
<!-- \\ItvisionSy\\Validator\\DomainValidatorRule -->
<g id="node5" class="node"><title>\\ItvisionSy\\Validator\\DomainValidatorRule</title>
<polygon fill="none" stroke="black" points="517.5,-500 372.5,-500 372.5,-464 517.5,-464 517.5,-500"/>
<text text-anchor="middle" x="445" y="-479.2" font-family="Courier,monospace" font-size="11.00">DomainValidatorRule</text>
</g>
<!-- \\ItvisionSy\\Validator\\DomainValidatorRule&#45;&gt;\\ItvisionSy\\Validator\\ValidatorRule -->
<g id="edge4" class="edge"><title>\\ItvisionSy\\Validator\\DomainValidatorRule&#45;&gt;\\ItvisionSy\\Validator\\ValidatorRule</title>
<path fill="none" stroke="black" d="M386.249,-463.839C379.319,-461.126 372.427,-458.167 366,-455 333.173,-438.826 298.606,-415.419 274.505,-397.922"/>
<polygon fill="none" stroke="black" points="276.569,-395.096 266.436,-392.001 272.428,-400.739 276.569,-395.096"/>
</g>
<!-- \\ItvisionSy\\Validator\\RequiredValidatorRule -->
<g id="node6" class="node"><title>\\ItvisionSy\\Validator\\RequiredValidatorRule</title>
<polygon fill="none" stroke="black" points="524,-446 366,-446 366,-410 524,-410 524,-446"/>
<text text-anchor="middle" x="445" y="-425.2" font-family="Courier,monospace" font-size="11.00">RequiredValidatorRule</text>
</g>
<!-- \\ItvisionSy\\Validator\\RequiredValidatorRule&#45;&gt;\\ItvisionSy\\Validator\\ValidatorRule -->
<g id="edge5" class="edge"><title>\\ItvisionSy\\Validator\\RequiredValidatorRule&#45;&gt;\\ItvisionSy\\Validator\\ValidatorRule</title>
<path fill="none" stroke="black" d="M376.79,-409.944C353.329,-403.641 327.138,-396.604 304.193,-390.44"/>
<polygon fill="none" stroke="black" points="304.804,-386.98 294.239,-387.766 302.988,-393.74 304.804,-386.98"/>
</g>
<!-- \\ItvisionSy\\Validator\\InValidatorRule -->
<g id="node7" class="node"><title>\\ItvisionSy\\Validator\\InValidatorRule</title>
<polygon fill="none" stroke="black" points="504,-392 386,-392 386,-356 504,-356 504,-392"/>
<text text-anchor="middle" x="445" y="-371.2" font-family="Courier,monospace" font-size="11.00">InValidatorRule</text>
</g>
<!-- \\ItvisionSy\\Validator\\InValidatorRule&#45;&gt;\\ItvisionSy\\Validator\\ValidatorRule -->
<g id="edge6" class="edge"><title>\\ItvisionSy\\Validator\\InValidatorRule&#45;&gt;\\ItvisionSy\\Validator\\ValidatorRule</title>
<path fill="none" stroke="black" d="M385.862,-374C360.273,-374 330.199,-374 304.262,-374"/>
<polygon fill="none" stroke="black" points="304.172,-370.5 294.172,-374 304.172,-377.5 304.172,-370.5"/>
</g>
<!-- \\ItvisionSy\\Validator\\Validator -->
<g id="node8" class="node"><title>\\ItvisionSy\\Validator\\Validator</title>
<polygon fill="none" stroke="black" points="483.5,-338 406.5,-338 406.5,-302 483.5,-302 483.5,-338"/>
<text text-anchor="middle" x="445" y="-317.2" font-family="Courier,monospace" font-size="11.00">Validator</text>
</g>
<!-- \\ItvisionSy\\Validator\\PatternValidatorRule -->
<g id="node9" class="node"><title>\\ItvisionSy\\Validator\\PatternValidatorRule</title>
<polygon fill="none" stroke="black" points="521,-284 369,-284 369,-248 521,-248 521,-284"/>
<text text-anchor="middle" x="445" y="-263.2" font-family="Courier,monospace" font-size="11.00">PatternValidatorRule</text>
</g>
<!-- \\ItvisionSy\\Validator\\PatternValidatorRule&#45;&gt;\\ItvisionSy\\Validator\\ValidatorRule -->
<g id="edge7" class="edge"><title>\\ItvisionSy\\Validator\\PatternValidatorRule&#45;&gt;\\ItvisionSy\\Validator\\ValidatorRule</title>
<path fill="none" stroke="black" d="M386.249,-284.161C379.319,-286.874 372.427,-289.833 366,-293 333.173,-309.174 298.606,-332.581 274.505,-350.078"/>
<polygon fill="none" stroke="black" points="272.428,-347.261 266.436,-355.999 276.569,-352.904 272.428,-347.261"/>
</g>
<!-- \\ItvisionSy\\Validator\\MinValidatorRule -->
<g id="node10" class="node"><title>\\ItvisionSy\\Validator\\MinValidatorRule</title>
<polygon fill="none" stroke="black" points="507.5,-230 382.5,-230 382.5,-194 507.5,-194 507.5,-230"/>
<text text-anchor="middle" x="445" y="-209.2" font-family="Courier,monospace" font-size="11.00">MinValidatorRule</text>
</g>
<!-- \\ItvisionSy\\Validator\\MinValidatorRule&#45;&gt;\\ItvisionSy\\Validator\\ValidatorRule -->
<g id="edge8" class="edge"><title>\\ItvisionSy\\Validator\\MinValidatorRule&#45;&gt;\\ItvisionSy\\Validator\\ValidatorRule</title>
<path fill="none" stroke="black" d="M382.146,-230.117C376.502,-232.737 371.026,-235.689 366,-239 321.659,-268.213 282.695,-316.978 261.048,-347.212"/>
<polygon fill="none" stroke="black" points="258.047,-345.395 255.155,-355.587 263.772,-349.423 258.047,-345.395"/>
</g>
<!-- \\ItvisionSy\\Validator\\NumberValidatorRule -->
<g id="node11" class="node"><title>\\ItvisionSy\\Validator\\NumberValidatorRule</title>
<polygon fill="none" stroke="black" points="517.5,-176 372.5,-176 372.5,-140 517.5,-140 517.5,-176"/>
<text text-anchor="middle" x="445" y="-155.2" font-family="Courier,monospace" font-size="11.00">NumberValidatorRule</text>
</g>
<!-- \\ItvisionSy\\Validator\\NumberValidatorRule&#45;&gt;\\ItvisionSy\\Validator\\ValidatorRule -->
<g id="edge9" class="edge"><title>\\ItvisionSy\\Validator\\NumberValidatorRule&#45;&gt;\\ItvisionSy\\Validator\\ValidatorRule</title>
<path fill="none" stroke="black" d="M379.978,-176.095C375.025,-178.693 370.29,-181.646 366,-185 310.012,-228.773 271.578,-305.502 253.956,-346.438"/>
<polygon fill="none" stroke="black" points="250.671,-345.22 250.023,-355.795 257.124,-347.933 250.671,-345.22"/>
</g>
<!-- \\ArrayAccess -->
<g id="node15" class="node"><title>\\ArrayAccess</title>
<ellipse fill="none" stroke="black" cx="59" cy="-374" rx="58.4896" ry="18"/>
<text text-anchor="middle" x="59" y="-370.3" font-family="Times,serif" font-size="14.00" fill="gray">\ArrayAccess</text>
</g>
<!-- \\ItvisionSy\\Validator\\ValidatorRule&#45;&gt;\\ArrayAccess -->
<g id="edge10" class="edge"><title>\\ItvisionSy\\Validator\\ValidatorRule&#45;&gt;\\ArrayAccess</title>
<path fill="none" stroke="black" stroke-dasharray="1,5" d="M189.617,-374C170.394,-374 148.255,-374 127.776,-374"/>
<polygon fill="none" stroke="black" points="127.561,-370.5 117.561,-374 127.561,-377.5 127.561,-370.5"/>
</g>
<!-- \\ItvisionSy\\Validator\\UrlValidatorRule -->
<g id="node13" class="node"><title>\\ItvisionSy\\Validator\\UrlValidatorRule</title>
<polygon fill="none" stroke="black" points="507.5,-122 382.5,-122 382.5,-86 507.5,-86 507.5,-122"/>
<text text-anchor="middle" x="445" y="-101.2" font-family="Courier,monospace" font-size="11.00">UrlValidatorRule</text>
</g>
<!-- \\ItvisionSy\\Validator\\UrlValidatorRule&#45;&gt;\\ItvisionSy\\Validator\\ValidatorRule -->
<g id="edge11" class="edge"><title>\\ItvisionSy\\Validator\\UrlValidatorRule&#45;&gt;\\ItvisionSy\\Validator\\ValidatorRule</title>
<path fill="none" stroke="black" d="M382.283,-120.147C376.418,-123.175 370.858,-126.759 366,-131 298.162,-190.227 263.184,-295.823 249.72,-346.014"/>
<polygon fill="none" stroke="black" points="246.292,-345.289 247.169,-355.847 253.068,-347.046 246.292,-345.289"/>
</g>
<!-- \\ItvisionSy\\Validator\\EmailValidatorRule -->
<g id="node14" class="node"><title>\\ItvisionSy\\Validator\\EmailValidatorRule</title>
<polygon fill="none" stroke="black" points="514,-68 376,-68 376,-32 514,-32 514,-68"/>
<text text-anchor="middle" x="445" y="-47.2" font-family="Courier,monospace" font-size="11.00">EmailValidatorRule</text>
</g>
<!-- \\ItvisionSy\\Validator\\EmailValidatorRule&#45;&gt;\\ItvisionSy\\Validator\\ValidatorRule -->
<g id="edge12" class="edge"><title>\\ItvisionSy\\Validator\\EmailValidatorRule&#45;&gt;\\ItvisionSy\\Validator\\ValidatorRule</title>
<path fill="none" stroke="black" d="M377.762,-68.1595C373.526,-70.7286 369.546,-73.6586 366,-77 286.083,-152.306 256.354,-287.294 246.873,-345.741"/>
<polygon fill="none" stroke="black" points="243.398,-345.315 245.331,-355.732 250.316,-346.383 243.398,-345.315"/>
</g>
</g>
</svg>
